<?xml version="1.0" encoding="utf-8"?>
<!-- Generator: Adobe Illustrator 22.0.1, SVG Export Plug-In . SVG Version: 6.00 Build 0)  -->
<svg version="1.1"
	 id="svg2" inkscape:version="0.91 r13725" sodipodi:docname="SBS_2015.svg" xmlns:cc="http://creativecommons.org/ns#" xmlns:dc="http://purl.org/dc/elements/1.1/" xmlns:inkscape="http://www.inkscape.org/namespaces/inkscape" xmlns:rdf="http://www.w3.org/1999/02/22-rdf-syntax-ns#" xmlns:sodipodi="http://sodipodi.sourceforge.net/DTD/sodipodi-0.dtd" xmlns:svg="http://www.w3.org/2000/svg"
	 xmlns="http://www.w3.org/2000/svg" xmlns:xlink="http://www.w3.org/1999/xlink" x="0px" y="0px" viewBox="0 0 1132.8 683"
	 style="enable-background:new 0 0 1132.8 683;" xml:space="preserve">
<style type="text/css">
	.st0{fill:#110F0E;}
	.st1{fill:#110F0E;}
</style>
<g id="layer1-7" transform="matrix(2.2791728,0,0,2.2791728,-209.84009,1216.5777)" inkscape:label="Layer 1">
	<g id="g3049" transform="matrix(1.4436998,0,0,1.4436998,-105.42852,-917.76024)">
		<path id="path25087" inkscape:connector-curvature="0" class="st0" d="M136.8,380.2c10.1-9.7,19.4-23,26.2-38.7
			c6.8-15.7,10.2-31.5,10.4-45.6l-0.1,0.1c-10.1,9.7-19.3,23-26.1,38.6c-6.8,15.6-10.2,31.4-10.4,45.4"/>
		<path id="path25091" inkscape:connector-curvature="0" class="st0" d="M147.8,402.2c13.6-13.1,26.1-30.9,35.3-52
			c9.2-21.1,13.8-42.3,14.1-61.2l-0.2,0.2c-13.6,13-26,30.8-35.1,51.8s-13.7,42.2-14.1,61"/>
		<path id="path25095" inkscape:connector-curvature="0" class="st0" d="M162.7,433.1c18.6-17.8,35.5-41.9,48-70.6
			c12.5-28.7,18.8-57.5,19.2-83.2l-0.2,0.2c-18.5,17.7-35.3,41.9-47.8,70.4c-12.5,28.6-18.7,57.3-19.2,82.9"/>
		<path id="path25101" inkscape:connector-curvature="0" class="st0" d="M183.2,473.5c25-24,47.7-56.7,64.4-95.3
			c16.8-38.7,25.1-77.6,25.6-112.3l-0.3,0.3c-24.8,24-47.5,56.6-64.2,95.1S183.7,439,183.2,473.5"/>
	</g>
</g>
<g>
	<path id="path2998" inkscape:connector-curvature="0" sodipodi:nodetypes="ccccccccccccc" class="st0" d="M537.7,193.3h24.8
		c-0.6-27.3-21.4-46-55-46c-28.7,0-51.6,17-51.6,41.7c0,55.3,85.6,28.5,85.6,65.4c0,14.5-14.5,21.8-29.7,21.8
		c-20.8,0-35.5-10-36.5-30.4h-24.6c0,37.6,30.4,50.4,58.6,50.4c33,0,57.1-15.5,57.1-43.7c0-57-85.9-31.6-85.9-66.3
		c0-11.8,11-18.2,26.3-18.2C529.6,168,536.5,179.9,537.7,193.3L537.7,193.3z"/>
	<path id="path3055" inkscape:connector-curvature="0" sodipodi:nodetypes="ccsscssccssscccssscc" class="st0" d="M575.8,150.8v142
		h69.3c27.4,0,48.3-13.4,48.3-39.5c0-18.2-6.4-30.5-26.5-37c11.2-4.8,19.8-12.4,19.8-30.8c0-23.5-15.6-34.8-41.4-34.8H575.8z
		 M600.5,170.7h40.3c15.7,0,21.7,8.9,21.7,19.9c0,12.4-8.3,19.8-20.2,19.8h-41.8V170.7z M600.5,228.3H644c17.4,0,24.9,9.6,24.9,22.4
		c0,14-11.3,22.2-24.2,22.2h-44.2L600.5,228.3z"/>
	<path id="path3061" inkscape:connector-curvature="0" sodipodi:nodetypes="ccccccccccccc" class="st0" d="M787.1,193.3H812
		c-0.6-27.3-21.4-46-55-46c-28.7,0-51.6,17-51.6,41.7c0,55.3,85.6,28.5,85.6,65.4c0,14.5-14.5,21.8-29.7,21.8
		c-20.8,0-35.5-10-36.5-30.4h-24.6c0,37.6,30.4,50.4,58.6,50.4c33,0,57.1-15.5,57.1-43.7c0-57-85.9-31.6-85.9-66.3
		c0-11.8,11-18.2,26.3-18.2C779,168,785.9,179.9,787.1,193.3L787.1,193.3z"/>
</g>
<g>
	<path class="st1" d="M480.1,312.4l18.6,80.8l4.1,22.5l4.1-22l15.9-81.2h31.1l16.8,80.8l4.3,22.5l4.4-21.6l18.8-81.6h30l-39.7,141.1
		h-28.2l-17-82.5l-5-27.3l-5,27.3l-17,82.5h-27.4l-40-141.1H480.1z"/>
	<path class="st1" d="M743,441c-10.7,11-26.1,16.5-46.2,16.5c-20.2,0-35.6-5.5-46.2-16.5c-14.3-13.5-21.4-32.9-21.4-58.2
		c0-25.8,7.1-45.2,21.4-58.2c10.7-11,26.1-16.5,46.2-16.5c20.2,0,35.6,5.5,46.2,16.5c14.2,13,21.3,32.3,21.3,58.2
		C764.3,408.1,757.2,427.5,743,441z M724.6,419.5c6.9-8.6,10.3-20.9,10.3-36.8c0-15.8-3.4-28.1-10.3-36.7c-6.9-8.6-16.1-13-27.8-13
		s-21,4.3-27.9,12.9c-7,8.6-10.4,20.9-10.4,36.8s3.5,28.1,10.4,36.8c7,8.6,16.3,12.9,27.9,12.9S717.7,428.1,724.6,419.5z"/>
	<path class="st1" d="M865.7,316.1c5.2,2.2,9.6,5.5,13.2,9.9c3,3.6,5.3,7.5,7.1,11.9c1.7,4.3,2.6,9.3,2.6,14.8
		c0,6.7-1.7,13.3-5.1,19.8c-3.4,6.5-9,11.1-16.7,13.7c6.5,2.6,11.1,6.3,13.8,11.1c2.7,4.8,4.1,12.2,4.1,22.1v9.5
		c0,6.4,0.3,10.8,0.8,13.1c0.8,3.6,2.6,6.3,5.4,8v3.5h-32.5c-0.9-3.1-1.5-5.6-1.9-7.6c-0.8-4-1.2-8-1.2-12.2l-0.2-13.1
		c-0.1-9-1.7-15-4.7-18c-3-3-8.6-4.5-16.8-4.5h-28.8v55.3h-28.8V312.4h67.5C853,312.6,860.5,313.8,865.7,316.1z M804.7,336.9v37.9
		h31.7c6.3,0,11-0.8,14.2-2.3c5.6-2.7,8.4-8,8.4-15.9c0-8.5-2.7-14.3-8.1-17.2c-3-1.7-7.6-2.5-13.6-2.5H804.7z"/>
	<path class="st1" d="M905.2,312.4h29.5v115.7h70.4v25.4h-99.9V312.4z"/>
	<path class="st1" d="M1096,315.5c9.9,3.3,17.9,9.2,24,17.9c4.9,7,8.3,14.6,10.1,22.8c1.8,8.2,2.7,16,2.7,23.4
		c0,18.8-3.8,34.6-11.3,47.7c-10.2,17.5-26,26.3-47.3,26.3h-60.8V312.4h60.8C1083,312.6,1090.2,313.6,1096,315.5z M1042,336.9V429
		h27.2c13.9,0,23.6-6.9,29.1-20.6c3-7.5,4.5-16.5,4.5-26.9c0-14.4-2.3-25.4-6.8-33.1c-4.5-7.7-13.5-11.5-26.9-11.5H1042z"/>
</g>
<g>
	<path class="st1" d="M454,472.7h32.2l58.3,102.4V472.7h28.6v146.8h-30.7l-59.8-104.2v104.2H454V472.7z"/>
	<path class="st1" d="M697.2,498.7h-77.7v31.2h71.3v25.5h-71.3v37.8h81.3v26.4H589.5V472.7h107.7V498.7z"/>
	<path class="st1" d="M735.3,472.7l19.4,84.1l4.2,23.4l4.2-22.9l16.6-84.6h32.4l17.4,84.1l4.5,23.4l4.5-22.5l19.6-85h31.2L848,619.5
		h-29.4l-17.7-85.9l-5.2-28.4l-5.2,28.4l-17.7,85.9h-28.5l-41.6-146.8H735.3z"/>
	<path class="st1" d="M919.7,574.2c0.9,6.7,2.8,11.7,5.6,15c5.1,6,13.8,9.1,26.1,9.1c7.4,0,13.4-0.8,18-2.4
		c8.7-3.1,13.1-8.7,13.1-17c0-4.8-2.1-8.6-6.4-11.3c-4.3-2.6-11.1-4.9-20.4-6.9l-15.9-3.5c-15.6-3.5-26.4-7.2-32.2-11.3
		c-9.9-6.8-14.8-17.4-14.8-31.8c0-13.1,4.8-24.1,14.5-32.8c9.7-8.7,23.9-13,42.7-13c15.7,0,29,4.1,40.1,12.3
		c11.1,8.2,16.9,20.1,17.4,35.7H978c-0.5-8.8-4.5-15.1-11.8-18.8c-4.9-2.5-11-3.7-18.3-3.7c-8.1,0-14.6,1.6-19.4,4.8
		s-7.2,7.6-7.2,13.3c0,5.2,2.4,9.2,7.1,11.8c3.1,1.7,9.6,3.8,19.5,6.1l25.8,6.1c11.3,2.7,19.8,6.2,25.4,10.7
		c8.8,6.9,13.1,16.9,13.1,30c0,13.4-5.2,24.6-15.6,33.4c-10.4,8.9-25,13.3-43.9,13.3c-19.3,0-34.5-4.4-45.6-13.1
		c-11.1-8.7-16.6-20.7-16.6-36H919.7z"/>
</g>
</svg>
